<svg
    width="15"
    height="15"
    viewBox="0 0 24 24"
    fill="none"
    xmlns="http://www.w3.org/2000/svg"
  >
    <g clip-path="url(#clip0_269_12584)">
      <path
        d="M13.6334 15.9427C13.5438 15.8445 13.4304 15.7711 13.3132 15.7099C13.058 15.5769 12.779 15.4962 12.502 15.4233V17.5702C12.9516 17.5194 13.4679 17.3562 13.704 16.9364C13.8168 16.7358 13.8392 16.4894 13.7933 16.2662C13.7684 16.1452 13.7169 16.0342 13.6334 15.9427Z"
        fill="#22C55E"
      />
      <path
        d="M13.7011 16.9404C13.702 16.9389 13.7025 16.9379 13.7035 16.9363C13.7027 16.9376 13.7019 16.939 13.7011 16.9404Z"
        fill="#22C55E"
      />
      <path
        d="M10.3931 12.5106C10.3158 12.6235 10.2672 12.7517 10.2539 12.8881C10.2405 13.0247 10.248 13.1766 10.2999 13.3052C10.3493 13.4278 10.4528 13.5182 10.5597 13.5911C10.6796 13.6726 10.8114 13.7363 10.9457 13.7903C11.0584 13.8357 11.1851 13.879 11.3217 13.921V11.9783C10.9766 12.0519 10.5995 12.2091 10.3931 12.5106Z"
        fill="#22C55E"
      />
      <path
        d="M13.712 16.9207C13.7092 16.9257 13.7061 16.9309 13.7031 16.9365C13.7066 16.93 13.7094 16.9253 13.712 16.9207Z"
        fill="#22C55E"
      />
      <path
        d="M13.7246 16.9002C13.7253 16.8989 13.7255 16.8988 13.7246 16.9002V16.9002Z"
        fill="#22C55E"
      />
      <path
        d="M13.2577 5.22201C15.0834 3.68831 16.3033 0.233111 15.5526 0.0819888C14.555 -0.118886 12.3888 0.761927 11.3418 0.917115C9.85678 1.09642 8.23938 -0.693219 7.33152 0.304324C6.59336 1.11539 7.86073 4.06499 9.84356 5.34998C3.92788 8.25745 -4.38702 22.8532 10.1188 23.9122C30.19 25.3777 20.1396 8.05528 13.2577 5.22201ZM14.9814 16.7329C14.9197 17.3019 14.6181 17.8165 14.1673 18.1659C13.6914 18.5347 13.0944 18.7063 12.5012 18.7544V19.3831C12.5012 19.5513 12.4278 19.714 12.3018 19.8254C12.1288 19.9785 11.8744 20.0163 11.6643 19.9195C11.4569 19.8241 11.3206 19.6113 11.3206 19.3831V18.6959C11.2189 18.6766 11.1179 18.6536 11.0181 18.6262C10.4638 18.4739 9.94962 18.177 9.57401 17.7378C9.38692 17.5188 9.23438 17.2704 9.12889 17.0022C9.10133 16.9321 9.07677 16.8608 9.05525 16.7886C9.03577 16.7232 9.01566 16.6568 9.00872 16.5887C8.99703 16.4745 9.01967 16.3579 9.07293 16.2562C9.18237 16.0468 9.41301 15.9204 9.6485 15.9414C9.88027 15.9619 10.0834 16.1228 10.1564 16.3437C10.1788 16.4117 10.1941 16.4815 10.2193 16.5488C10.2444 16.6157 10.2746 16.6807 10.3101 16.7426C10.3802 16.8644 10.4681 16.9768 10.5693 17.0743C10.7779 17.2753 11.0436 17.4059 11.3206 17.4837V15.1478C10.779 15.0076 10.2199 14.8265 9.77263 14.4787C9.55527 14.3096 9.37082 14.0996 9.25003 13.8509C9.12257 13.5885 9.06976 13.2961 9.06762 13.0057C9.06542 12.7109 9.12144 12.4186 9.24444 12.15C9.35964 11.8984 9.5255 11.6726 9.72886 11.4854C10.1637 11.0852 10.7413 10.8619 11.3207 10.7799V10.7286V10.1273C11.3207 9.9591 11.3941 9.79635 11.5201 9.68498C11.6932 9.53188 11.9475 9.49405 12.1576 9.59084C12.365 9.68634 12.5013 9.89901 12.5013 10.1273V10.7286V10.7764C12.5785 10.7861 12.6555 10.7977 12.7321 10.8116C13.301 10.9146 13.8574 11.1495 14.2734 11.5597C14.4705 11.7539 14.6319 11.9854 14.7453 12.2379C14.777 12.3083 14.8047 12.3803 14.8287 12.4538C14.8511 12.5223 14.8736 12.5928 14.8842 12.6643C14.9013 12.7785 14.8839 12.8964 14.8351 13.0008C14.735 13.2147 14.5106 13.3509 14.2745 13.3408C14.0425 13.3307 13.8323 13.1797 13.7492 12.9628C13.7245 12.8983 13.7121 12.83 13.6868 12.7657C13.6614 12.7006 13.6284 12.6385 13.5904 12.5798C13.5165 12.4657 13.4208 12.3679 13.3115 12.2873C13.0749 12.1126 12.7879 12.0216 12.5011 11.9707V14.206C12.842 14.2876 13.183 14.3766 13.5096 14.5054C14.0031 14.7 14.4708 14.9984 14.7401 15.4689C14.6983 15.3956 14.6577 15.3242 14.7415 15.4713C14.8239 15.6159 14.7846 15.547 14.7432 15.4746C14.9576 15.8523 15.028 16.3039 14.9814 16.7329Z"
        fill="#22C55E"
      />
      <path
        d="M13.6944 16.9517C13.6909 16.9578 13.6879 16.9632 13.6855 16.9674C13.6876 16.9638 13.6906 16.9584 13.6944 16.9517Z"
        fill="#22C55E"
      />
    </g>
    <defs>
      <clipPath id="clip0_269_12584">
        <rect width="24" height="24" fill="white" />
      </clipPath>
    </defs>
  </svg>