<svg width="1000" height="235" viewBox="0 0 1000 235" fill="none" xmlns="http://www.w3.org/2000/svg">
<rect y="38.7539" width="1000" height="160" rx="16" fill="url(#paint0_radial_10935_23290)"/>
<rect width="1000" height="160" rx="16" transform="matrix(-1 0 0 1 1000 38.7539)" fill="url(#paint1_radial_10935_23290)"/>
<rect x="-2" y="2" width="996" height="156" rx="14" transform="matrix(-1 0 0 1 996 38.7539)" stroke="url(#paint2_linear_10935_23290)" stroke-width="4"/>
<ellipse cx="131.321" cy="196.754" rx="120" ry="8" fill="url(#paint3_radial_10935_23290)" style="mix-blend-mode:plus-lighter"/>
<ellipse cx="875.859" cy="40.0098" rx="120" ry="8" fill="url(#paint4_radial_10935_23290)" style="mix-blend-mode:plus-lighter"/>
<g clip-path="url(#clip0_10935_23290)">
<path d="M859.714 0H867.54L858.73 17H850.903L859.714 0Z" fill="#79FFFA"/>
<path d="M876.351 0H884.178L875.367 17H867.541L876.351 0Z" fill="#79FFFA"/>
<path d="M892.988 0H900.815L892.004 17H884.178L892.988 0Z" fill="#79FFFA"/>
<path d="M909.625 0H917.452L908.641 17H900.814L909.625 0Z" fill="#79FFFA"/>
<path d="M926.263 0H934.089L925.279 17H917.452L926.263 0Z" fill="#79FFFA"/>
<path d="M942.9 0H950.726L941.915 17H934.089L942.9 0Z" fill="#79FFFA"/>
<path d="M959.536 0H967.363L958.552 17H950.726L959.536 0Z" fill="#79FFFA"/>
<path d="M976.174 0H984L975.19 17H967.363L976.174 0Z" fill="#79FFFA"/>
</g>
<g clip-path="url(#clip1_10935_23290)">
<path d="M24.8107 217.164H32.6371L23.8264 234.164H16L24.8107 217.164Z" fill="#79FFFA"/>
<path d="M41.4479 217.164H49.2743L40.4636 234.164H32.6372L41.4479 217.164Z" fill="#79FFFA"/>
<path d="M58.0851 217.164H65.9115L57.1009 234.164H49.2744L58.0851 217.164Z" fill="#79FFFA"/>
<path d="M74.7218 217.164H82.5482L73.7376 234.164H65.9111L74.7218 217.164Z" fill="#79FFFA"/>
<path d="M91.359 217.164H99.1854L90.3748 234.164H82.5483L91.359 217.164Z" fill="#79FFFA"/>
<path d="M107.996 217.164H115.823L107.012 234.164H99.1855L107.996 217.164Z" fill="#79FFFA"/>
<path d="M124.633 217.164H132.46L123.649 234.164H115.823L124.633 217.164Z" fill="#79FFFA"/>
<path d="M141.27 217.164H149.097L140.286 234.164H132.459L141.27 217.164Z" fill="#79FFFA"/>
</g>
<defs>
<radialGradient id="paint0_radial_10935_23290" cx="0" cy="0" r="1" gradientUnits="userSpaceOnUse" gradientTransform="translate(17.8872 65.3496) rotate(12.8043) scale(643.258 228.558)">
<stop stop-color="#79FFFA"/>
<stop offset="0.406277" stop-color="#7FFAFD" stop-opacity="0.8"/>
<stop offset="1" stop-color="#A5F7FF" stop-opacity="0"/>
</radialGradient>
<radialGradient id="paint1_radial_10935_23290" cx="0" cy="0" r="1" gradientUnits="userSpaceOnUse" gradientTransform="translate(11.2697 160) rotate(-13.019) scale(710.246 355.142)">
<stop offset="0.106265" stop-color="#79FFFA"/>
<stop offset="1" stop-color="#A5F7FF" stop-opacity="0"/>
</radialGradient>
<linearGradient id="paint2_linear_10935_23290" x1="80.4441" y1="-116.897" x2="839.926" y2="295.701" gradientUnits="userSpaceOnUse">
<stop stop-color="#AEF7FF"/>
<stop offset="0.5" stop-color="#84F4FF" stop-opacity="0.1"/>
<stop offset="1" stop-color="#AEF7FF"/>
</linearGradient>
<radialGradient id="paint3_radial_10935_23290" cx="0" cy="0" r="1" gradientUnits="userSpaceOnUse" gradientTransform="translate(131.321 196.754) scale(120 8)">
<stop stop-color="#AEF7FF"/>
<stop offset="0.822115" stop-color="#AEF7FF" stop-opacity="0"/>
</radialGradient>
<radialGradient id="paint4_radial_10935_23290" cx="0" cy="0" r="1" gradientUnits="userSpaceOnUse" gradientTransform="translate(875.859 40.0098) scale(120 8)">
<stop stop-color="#AEF7FF"/>
<stop offset="0.822115" stop-color="#AEF7FF" stop-opacity="0"/>
</radialGradient>
<clipPath id="clip0_10935_23290">
<rect width="133.097" height="17" fill="white" transform="translate(850.903)"/>
</clipPath>
<clipPath id="clip1_10935_23290">
<rect width="133.097" height="17" fill="white" transform="translate(16 217.164)"/>
</clipPath>
</defs>
</svg>
